# xmcd
#
# Track frame offsets: 
#        150
#        13340
#        26891
#        38847
#        51280
#        62774
#        72880
#        83477
#        96245
#        111929
#        122901
#        133685
#        145863
#        160120
#        174350
#        189118
#        202850
#        216231
#
# Disc length: 3052 seconds
#
# Revision: 2
# Processed by: cddbd v1.5.2PL0 Copyright (c) Steve Scherf et al.
# Submitted via: ExactAudioCopy v0.99pb5
#
DISCID=fc0bea12
DTITLE=Various Artist - Classic Country - TL 626-31 - Country Lovin'
DYEAR=2000
DGENRE=Country
TTITLE0=B.J. Thomas - Here you come again
TTITLE1=Roger Miller - Gentle on my mind
TTITLE2=Loretta Lynn and Conway Twitty - It's only make believe
TTITLE3=Freddy Fender - Just out of reach of my two empty arms
TTITLE4=Jerry Lee Lewis - Games people play
TTITLE5=Springfields - Silver threads and golden needles
TTITLE6=Loretta Lynn and Conway Twitty - Never ending song of love
TTITLE7=Roy Drusky - Red red wine
TTITLE8=Don Williams - 'Til the rivers all run dry
TTITLE9=Sandy Posey - Come softly to me
TTITLE10=Jack Greene - Together again
TTITLE11=Burl Ives - Call me Mr. In-Between
TTITLE12=Statler Brothers - Me and Bobby McGee
TTITLE13=Lee Greenwood - I.O.U.
TTITLE14=Oak Ridge Boys - Dream on
TTITLE15=Conway Twitty and Loretta Lynn - Bye bye love
TTITLE16=Patsy Cline - I can't help it (if I'm still in love with you)
TTITLE17=Hank Williams With His Drifting Cowboys - I'm so lonesome I c
TTITLE17=ould cry
EXTD=YEAR: 2000
EXTT0=
EXTT1=
EXTT2=
EXTT3=
EXTT4=
EXTT5=
EXTT6=
EXTT7=
EXTT8=
EXTT9=
EXTT10=
EXTT11=
EXTT12=
EXTT13=
EXTT14=
EXTT15=
EXTT16=
EXTT17=
PLAYORDER=
